<svg id="Capa_1" data-name="Capa 1" xmlns="http://www.w3.org/2000/svg" xmlns:xlink="http://www.w3.org/1999/xlink" viewBox="0 0 80 80"><defs><style>.cls-1,.cls-16,.cls-2,.cls-3{fill:none;}.cls-2{clip-rule:evenodd;}.cls-3{fill-rule:evenodd;}.cls-4{clip-path:url(#clip-path);}.cls-5{clip-path:url(#clip-path-2);}.cls-6{clip-path:url(#clip-path-3);}.cls-7{clip-path:url(#clip-path-4);}.cls-8{clip-path:url(#clip-path-5);}.cls-9{clip-path:url(#clip-path-6);}.cls-10{clip-path:url(#clip-path-7);}.cls-11{clip-path:url(#clip-path-8);}.cls-12{clip-path:url(#clip-path-9);}.cls-13{clip-path:url(#clip-path-10);}.cls-14{fill:#ccc;}.cls-15{fill:#64b73d;}.cls-16{stroke:#64b73d;stroke-miterlimit:10;stroke-width:2px;}.cls-17{clip-path:url(#clip-path-16);}.cls-18{clip-path:url(#clip-path-17);}.cls-19{clip-path:url(#clip-path-20);}</style><clipPath id="clip-path"><rect class="cls-1" x="-261.2" y="-1041.22" width="98" height="26"/></clipPath><clipPath id="clip-path-2"><path class="cls-2" d="M-225.26-1031.22h-20.88a1.06,1.06,0,0,1-1.06-1v-17.9a1.06,1.06,0,0,1,1.06-1h20.88a1.05,1.05,0,0,1,1.06,1v17.9A1.05,1.05,0,0,1-225.26-1031.22Z"/></clipPath><clipPath id="clip-path-3"><path class="cls-2" d="M-203.26-1031.22h-20.88a1.06,1.06,0,0,1-1.06-1v-17.9a1.06,1.06,0,0,1,1.06-1h20.88a1.05,1.05,0,0,1,1.06,1v17.9A1.05,1.05,0,0,1-203.26-1031.22Z"/></clipPath><clipPath id="clip-path-4"><path class="cls-2" d="M-180.26-1031.22h-20.88a1.06,1.06,0,0,1-1.06-1v-17.9a1.06,1.06,0,0,1,1.06-1h20.88a1.05,1.05,0,0,1,1.06,1v17.9A1.05,1.05,0,0,1-180.26-1031.22Z"/></clipPath><clipPath id="clip-path-5"><path class="cls-2" d="M-211.5-1027.94c-.79,0-4.7.5-4.7,0v-16.25c0-.5.64-.91,1.43-.91h28.14c.79,0,1.43.41,1.43.91v16.25c0,.23-1.88,0-4.7,0-2.31,0-.5,4.29-.94,4.29a105.67,105.67,0,0,1-18.68,1.52Q-210.82-1022.17-211.5-1027.94Z"/></clipPath><clipPath id="clip-path-6"><rect class="cls-1" x="-308.2" y="-1045.22" width="98" height="26"/></clipPath><clipPath id="clip-path-7"><path class="cls-2" d="M-272.26-1035.22h-20.88a1.06,1.06,0,0,1-1.06-1v-17.9a1.06,1.06,0,0,1,1.06-1h20.88a1.05,1.05,0,0,1,1.06,1v17.9A1.05,1.05,0,0,1-272.26-1035.22Z"/></clipPath><clipPath id="clip-path-8"><path class="cls-2" d="M-250.26-1035.22h-20.88a1.06,1.06,0,0,1-1.06-1v-17.9a1.06,1.06,0,0,1,1.06-1h20.88a1.05,1.05,0,0,1,1.06,1v17.9A1.05,1.05,0,0,1-250.26-1035.22Z"/></clipPath><clipPath id="clip-path-9"><path class="cls-2" d="M-227.26-1035.22h-20.88a1.06,1.06,0,0,1-1.06-1v-17.9a1.06,1.06,0,0,1,1.06-1h20.88a1.05,1.05,0,0,1,1.06,1v17.9A1.05,1.05,0,0,1-227.26-1035.22Z"/></clipPath><clipPath id="clip-path-10"><path class="cls-2" d="M-258.5-1031.94c-.79,0-4.7.5-4.7,0v-16.25c0-.5.64-.91,1.43-.91h28.14c.79,0,1.43.41,1.43.91v16.25c0,.23-1.88,0-4.7,0-2.31,0-.5,4.29-.94,4.29a105.67,105.67,0,0,1-18.68,1.52Q-257.82-1026.18-258.5-1031.94Z"/></clipPath><clipPath id="clip-path-16"><ellipse class="cls-1" cx="-72.56" cy="-264.86" rx="36.5" ry="6" transform="translate(4.61 -1.31) rotate(-1)"/></clipPath><clipPath id="clip-path-17"><path class="cls-1" d="M-33.73-285.27l-47.35,11.81-7.26-29.11L-61-293.92l20-20.46Zm-8.71-34.93-20,20.46-27.31-8.65Zm5.92-1.48A6.07,6.07,0,0,0-43.89-326l-47.35,11.8a6.07,6.07,0,0,0-4.47,7.3L-87-272a6.08,6.08,0,0,0,7.37,4.35l47.35-11.81a6.06,6.06,0,0,0,4.47-7.29Z"/></clipPath><clipPath id="clip-path-20"><ellipse class="cls-1" cx="-270.16" cy="-321.72" rx="46" ry="7.5"/></clipPath></defs><title>sugestao</title><ellipse class="cls-14" cx="39.47" cy="66.26" rx="28.59" ry="2.93"/><path class="cls-15" d="M58.58,26.35h0L40.22,14.91a1.52,1.52,0,0,0-1.63,0c-5.63,3.51-13.35,8.36-17.42,11l-.51.33c-1.28.83-2.11,1.38-2.26,1.51a2.53,2.53,0,0,0-.94,2.12l-.12,27.61a3.62,3.62,0,0,0,1.07,2.61A3.66,3.66,0,0,0,21,61.15l36.81.17h0a3.7,3.7,0,0,0,3.69-3.67L61.65,30a3.72,3.72,0,0,0-.19-1.14C61.32,28.48,60.88,27.76,58.58,26.35Zm.17,32.2-38.64-.17.11-25.58L38.68,44.45a1.52,1.52,0,0,0,1.63,0L58.86,33Zm.72-24h0l.27-.42-.27.42ZM59,30.44,40.85,41.68a2.48,2.48,0,0,1-1.34.38,2.52,2.52,0,0,1-1.35-.39l-17.37-11S20,30.21,19.7,30s-.39-.72.19-1.08L38.05,17.67a2.54,2.54,0,0,1,2.68,0L58.9,29.16a2.1,2.1,0,0,1,.42.32.56.56,0,0,1,.13.54c-.08.22-.43.42-.43.42"/><polygon class="cls-15" points="54.7 34.37 52.7 34.37 52.7 25 26.24 25 26.24 34.12 24.24 34.12 24.24 23.13 54.7 23.13 54.7 34.37"/><line class="cls-16" x1="29.64" y1="29.46" x2="49.55" y2="29.46"/><line class="cls-16" x1="29.64" y1="33.55" x2="49.55" y2="33.55"/><line class="cls-16" x1="30.24" y1="37.69" x2="41" y2="37.69"/></svg>